<svg width="14" height="14" viewBox="0 0 14 14" fill="none" xmlns="http://www.w3.org/2000/svg">
<path fill-rule="evenodd" clip-rule="evenodd" d="M2.0501 0.635977L13.3641 11.95C13.5463 12.1386 13.6471 12.3912 13.6448 12.6534C13.6425 12.9156 13.5373 13.1664 13.3519 13.3518C13.1665 13.5372 12.9157 13.6424 12.6535 13.6447C12.3913 13.6469 12.1387 13.5461 11.9501 13.364L0.636099 2.04998C0.540589 1.95773 0.464406 1.84739 0.411997 1.72538C0.359588 1.60338 0.332002 1.47216 0.330848 1.33938C0.329694 1.2066 0.354996 1.07492 0.405277 0.952023C0.455558 0.829126 0.529811 0.717474 0.623704 0.623582C0.717597 0.529689 0.829248 0.455436 0.952145 0.405155C1.07504 0.354874 1.20672 0.329572 1.3395 0.330726C1.47228 0.33188 1.6035 0.359466 1.7255 0.411875C1.84751 0.464284 1.95785 0.540467 2.0501 0.635977Z" fill="white"/>
</svg>
